# xmcd CD database file
#
# Track frame offsets:
#	150
#	35797
#	58950
#	87075
#	122860
#	154285
#	179742
#	202565
#	232165
#	249067
#
# Disc length: 3431 seconds
#
# Revision: 0
# Processed by: cddbd v1.5.2PL0 Copyright (c) Steve Scherf et al.
# Submitted via: CDex 1.79
#
DISCID=880d650a
DTITLE=Stephan-Max Wirth - A Walk In The Dark
DYEAR=1995
DGENRE=Jazz
TTITLE0=Fritzewitz The Frogman
TTITLE1=What A Night
TTITLE2=Can't You See
TTITLE3=Hand Of Fate
TTITLE4=A Walk In The Dark
TTITLE5=Y Todavia La Quiero
TTITLE6=Slightly Blue
TTITLE7=Brother
TTITLE8=Cross Country
TTITLE9=Remember September, Romomber October
EXTD=YEAR: 1995
EXTT0=
EXTT1=
EXTT2=
EXTT3=
EXTT4=
EXTT5=
EXTT6=
EXTT7=
EXTT8=
EXTT9=
PLAYORDER=
